<?xml version="1.0" standalone="no"?>
<!DOCTYPE svg PUBLIC "-//W3C//DTD SVG 20010904//EN"
 "http://www.w3.org/TR/2001/REC-SVG-20010904/DTD/svg10.dtd">
<svg version="1.0" xmlns="http://www.w3.org/2000/svg"
 width="800.000000pt" height="294.000000pt" viewBox="0 0 800.000000 294.000000"
 preserveAspectRatio="xMidYMid meet">

<g transform="translate(0.000000,294.000000) scale(0.100000,-0.100000)"
fill="#000000" stroke="none">
<path d="M1208 2715 c-31 -8 -87 -28 -125 -46 -37 -17 -110 -49 -162 -71 -163
-68 -271 -152 -370 -288 -96 -130 -136 -220 -167 -378 -16 -79 -22 -92 -64
-139 -136 -155 -226 -418 -191 -560 14 -54 96 -257 142 -349 36 -74 220 -298
275 -336 94 -65 318 -145 454 -163 37 -4 72 -18 106 -40 113 -74 126 -78 304
-89 281 -17 314 -15 492 37 226 66 318 119 477 271 122 118 188 223 234 373
14 45 34 95 45 110 35 49 82 151 97 210 38 147 -2 341 -127 603 -109 229 -269
446 -401 540 -79 57 -306 186 -319 182 -5 -1 -8 2 -8 8 0 5 -7 6 -17 3 -11 -4
-14 -3 -9 5 4 8 2 10 -7 6 -18 -6 -131 25 -122 34 4 4 -17 12 -47 18 -29 6
-93 23 -143 38 -112 34 -262 43 -347 21z m282 -74 c-8 -5 -46 -12 -85 -15
-224 -22 -452 -127 -618 -284 -61 -58 -264 -303 -326 -393 -19 -27 -36 -47
-38 -45 -3 3 4 30 16 61 12 31 21 67 21 82 0 21 -2 24 -15 13 -8 -7 -15 -9
-15 -4 0 21 86 173 134 238 83 111 198 208 226 191 5 -3 34 12 63 34 29 22 72
47 94 55 52 18 201 43 363 60 153 17 201 19 180 7z m-197 -70 c-145 -50 -271
-142 -511 -375 -56 -54 -106 -96 -110 -91 -4 4 29 41 73 83 84 79 84 81 -4 20
-30 -21 -56 -36 -59 -33 -18 18 102 137 230 228 124 88 225 140 328 171 115
34 155 31 53 -3z m490 -16 c96 -25 291 -134 365 -205 39 -37 17 -34 -69 10
-106 54 -130 63 -126 48 2 -14 -41 -13 -153 4 -127 19 -279 13 -453 -17 -87
-15 -169 -24 -182 -21 -17 4 -50 -7 -109 -36 -133 -66 -123 -30 17 59 38 24
54 39 45 44 -25 16 93 89 183 113 77 21 404 21 482 1z m46 -171 c127 -26 232
-66 307 -116 175 -117 329 -352 386 -588 17 -72 19 -107 15 -230 -8 -245 -28
-285 -245 -497 -226 -222 -380 -312 -632 -368 -103 -23 -168 -33 -199 -29 -34
3 -41 2 -26 -5 105 -50 487 72 690 220 22 16 105 94 184 172 l144 142 -44 -83
c-153 -292 -382 -467 -711 -544 -80 -19 -106 -20 -302 -13 l-214 7 -98 85
c-126 108 -125 107 -94 100 102 -24 104 -15 5 19 -107 37 -112 40 -187 115
-52 53 -98 113 -141 186 -36 59 -85 141 -110 181 -48 78 -106 224 -132 332 -8
36 -18 111 -21 167 -7 101 -7 102 25 158 30 53 162 189 291 300 57 48 252 148
410 210 88 34 265 78 385 94 86 12 212 6 314 -15z m-1234 -384 c-27 -27 -54
-50 -60 -50 -10 1 92 100 103 100 3 0 -16 -22 -43 -50z m-305 -405 c-5 -27 -9
-110 -9 -182 -1 -116 2 -140 23 -196 38 -103 88 -188 102 -174 3 3 -11 37 -33
74 -35 61 -63 125 -63 142 0 3 15 -21 33 -54 39 -72 125 -200 158 -235 13 -14
42 -39 64 -55 22 -16 76 -60 119 -97 43 -38 82 -68 86 -68 4 0 33 -47 65 -104
31 -58 82 -132 112 -165 l55 -61 -32 0 c-87 0 -264 64 -375 135 -115 73 -167
135 -277 324 -56 96 -107 196 -114 222 -41 158 -21 319 62 494 15 31 28 54 29
53 2 -2 -1 -25 -5 -53z m71 -140 c20 -162 69 -297 156 -434 19 -29 33 -55 31
-57 -8 -7 -101 119 -129 175 -32 63 -75 220 -85 307 -4 29 -3 74 2 101 5 33 9
40 11 23 2 -14 8 -65 14 -115z m2366 73 c13 -39 18 -82 18 -164 0 -110 0 -111
-43 -198 -24 -48 -45 -86 -47 -84 -2 2 0 46 5 98 5 52 10 136 10 186 0 130 10
214 26 214 7 0 21 -24 31 -52z m-2536 -86 c-12 -49 -21 -102 -21 -118 0 -46
-11 -78 -21 -62 -22 34 -2 160 38 246 25 53 26 30 4 -66z m268 -170 c27 -67
52 -136 56 -154 l7 -33 -21 19 c-43 39 -111 213 -111 285 0 41 16 14 69 -117z
m2079 -325 c-23 -69 -87 -156 -119 -161 -9 -1 -44 -29 -77 -63 -90 -92 -295
-223 -347 -223 -16 1 -11 8 25 40 25 21 68 51 95 66 104 56 242 154 296 210
30 33 75 91 99 131 25 39 46 71 47 69 1 -1 -7 -32 -19 -69z m23 -88 c-20 -52
-62 -121 -70 -114 -10 11 70 165 85 165 2 0 -5 -23 -15 -51z m-1096 -435 c129
-8 157 -17 99 -33 -60 -17 -140 -13 -223 10 -97 27 -116 44 -41 36 30 -4 105
-9 165 -13z"/>
<path d="M1128 613 c7 -3 16 -2 19 1 4 3 -2 6 -13 5 -11 0 -14 -3 -6 -6z"/>
<path d="M1388 563 c7 -3 16 -2 19 1 4 3 -2 6 -13 5 -11 0 -14 -3 -6 -6z"/>
<path d="M2415 809 c-4 -6 -5 -12 -2 -15 2 -3 7 2 10 11 7 17 1 20 -8 4z"/>
<path d="M4535 2405 c-44 -8 -81 -14 -82 -14 -2 -1 -3 -318 -3 -706 l0 -706
113 3 112 3 3 357 2 357 39 30 c66 53 126 74 193 69 69 -5 104 -27 133 -84 19
-36 20 -62 23 -387 l3 -348 112 3 112 3 0 375 0 375 -28 61 c-34 74 -94 135
-162 165 -76 34 -201 32 -280 -5 -33 -15 -77 -40 -97 -56 -20 -17 -39 -30 -42
-30 -3 0 -7 123 -8 273 l-3 272 -30 2 c-16 0 -66 -5 -110 -12z"/>
<path d="M7465 2258 c-33 -5 -65 -15 -72 -21 -10 -10 -53 -243 -53 -285 0 -6
-26 -13 -58 -17 -32 -3 -64 -10 -70 -14 -10 -6 -52 -130 -52 -153 0 -4 39 -9
88 -10 l87 -3 5 -305 c4 -269 7 -310 24 -348 22 -51 82 -105 135 -120 87 -26
248 -7 301 36 22 18 22 18 5 80 -22 78 -32 86 -78 67 -56 -23 -99 -19 -128 11
l-24 26 0 276 0 277 110 3 c72 2 112 7 117 15 4 7 8 41 8 77 0 36 -4 70 -8 77
-5 8 -45 13 -117 15 l-110 3 -3 155 c-2 151 -7 172 -37 169 -5 -1 -37 -6 -70
-11z"/>
<path d="M3761 1979 c-126 -22 -228 -95 -273 -194 -18 -41 -23 -68 -23 -145 0
-82 4 -103 26 -151 15 -31 46 -74 69 -97 l42 -40 -37 -34 c-21 -18 -44 -47
-51 -65 -29 -69 -9 -166 41 -199 l26 -17 -52 -46 c-122 -106 -132 -261 -23
-361 83 -76 203 -107 376 -97 295 18 468 152 468 363 0 169 -97 227 -405 245
-202 11 -220 14 -240 42 -22 32 -18 55 13 87 28 27 31 28 113 23 189 -11 336
60 398 192 31 65 39 189 18 258 -15 48 -15 48 9 58 14 5 33 9 43 9 41 0 52 22
49 95 -3 66 -5 70 -28 73 -34 5 -90 -13 -136 -44 l-39 -27 -35 21 c-83 47
-241 71 -349 51z m199 -181 c33 -17 51 -35 68 -68 46 -93 16 -205 -68 -247
-92 -47 -221 -19 -265 57 -29 51 -28 152 3 202 47 75 171 102 262 56z m79
-839 c73 -12 101 -39 101 -95 0 -53 -32 -95 -104 -131 -70 -37 -225 -45 -301
-16 -85 32 -119 114 -77 191 34 63 61 72 202 66 69 -3 149 -10 179 -15z"/>
<path d="M5785 1979 c-139 -21 -273 -118 -332 -241 -42 -86 -56 -155 -56 -269
1 -248 127 -429 338 -485 75 -20 231 -18 304 5 156 48 263 164 306 328 19 74
19 242 0 316 -30 117 -112 232 -206 290 -80 49 -239 74 -354 56z m205 -201
c87 -44 130 -147 130 -308 0 -208 -84 -320 -239 -320 -88 0 -145 28 -188 93
-42 63 -56 138 -51 267 9 201 81 289 238 290 49 0 77 -6 110 -22z"/>
<path d="M6724 1980 c-67 -10 -160 -53 -203 -93 -81 -77 -106 -218 -57 -322
39 -84 93 -121 261 -175 121 -39 147 -52 174 -86 41 -53 15 -121 -56 -145 -51
-17 -203 -6 -286 21 -50 16 -72 18 -82 10 -10 -8 -45 -120 -45 -144 0 -12 84
-47 147 -62 49 -12 101 -15 188 -12 105 4 128 8 182 32 70 32 143 102 168 162
22 53 29 141 16 190 -27 101 -92 151 -275 213 -146 50 -196 84 -196 133 0 70
44 98 157 98 48 0 107 -8 152 -20 52 -15 77 -18 86 -10 7 6 20 41 30 77 16 64
15 68 -2 81 -26 19 -107 40 -193 52 -84 11 -94 11 -166 0z"/>
</g>
</svg>
