<?xml version="1.0" encoding="UTF-8" standalone="no"?>
<svg
   role="img"
   viewBox="0 0 24 24"
   version="1.1"
   id="svg1"
   sodipodi:docname="Simpleicons-Team-Simple-Hugo.svg"
   inkscape:export-filename="Simpleicons-Team-Simple-Hugo.svg"
   inkscape:export-xdpi="96"
   inkscape:export-ydpi="96"
   inkscape:version="1.3 (1:1.3+202307231459+0e150ed6c4)"
   xmlns:inkscape="http://www.inkscape.org/namespaces/inkscape"
   xmlns:sodipodi="http://sodipodi.sourceforge.net/DTD/sodipodi-0.dtd"
   xmlns="http://www.w3.org/2000/svg"
   xmlns:svg="http://www.w3.org/2000/svg">
  <defs
     id="defs1" />
  <sodipodi:namedview
     id="namedview1"
     pagecolor="#ffffff"
     bordercolor="#000000"
     borderopacity="0.25"
     inkscape:showpageshadow="2"
     inkscape:pageopacity="0.0"
     inkscape:pagecheckerboard="0"
     inkscape:deskcolor="#d1d1d1"
     inkscape:zoom="30.875"
     inkscape:cx="11.983806"
     inkscape:cy="12"
     inkscape:window-width="1920"
     inkscape:window-height="941"
     inkscape:window-x="0"
     inkscape:window-y="27"
     inkscape:window-maximized="1"
     inkscape:current-layer="svg1" />
  <title
     id="title1">Hugo</title>
  <path
     d="M11.754 0a3.998 3.998 0 00-2.049.596L3.33 4.532a4.252 4.252 0 00-2.017 3.615v8.03c0 1.473.79 2.838 2.067 3.574l6.486 3.733a3.88 3.88 0 003.835.018l7.043-3.966a3.817 3.817 0 001.943-3.323V7.752a3.57 3.57 0 00-1.774-3.084L13.817.541a3.998 3.998 0 00-2.063-.54zm.022 1.674c.413-.006.828.1 1.2.315l7.095 4.127c.584.34.941.96.94 1.635v8.462c0 .774-.414 1.484-1.089 1.864l-7.042 3.966a2.199 2.199 0 01-2.179-.01l-6.485-3.734a2.447 2.447 0 01-1.228-2.123v-8.03c0-.893.461-1.72 1.221-2.19l6.376-3.935a2.323 2.323 0 011.19-.347zm-4.7 3.844V18.37h2.69v-5.62h4.46v5.62h2.696V5.518h-2.696v4.681h-4.46V5.518Z"
     id="path1" />
</svg>
